<?xml version="1.0" encoding="UTF-8"?>
<svg viewBox="0 0 1024 1024" xmlns="http://www.w3.org/2000/svg">
    <style type="text/css">
        .background { fill: #FFFFFF; }
        .stroke { fill: #000000; }
        .arrow-line {
            fill: none;
            stroke: #FFFFFF;
            stroke-width: 8px;
            stroke-linecap: round;
            stroke-linejoin: round;
        }
        .arrow-head {
            fill: #FFFFFF;
            stroke: none;
        }
        .stroke-number {
            font-family: Helvetica, Arial, sans-serif;
            font-size: 45px;
            fill: #FFFFFF;
            font-weight: 800;
            text-anchor: middle;
            dominant-baseline: middle;
        }
    </style>
    <rect class="background" x="0" y="0" width="1024" height="1024"/>
    <g transform="scale(1, -1) translate(0, -900)">
        
        <path d="M 272 567 Q 306 613 342 669 Q 370 718 395 743 Q 405 753 400 769 Q 396 782 365 808 Q 337 827 316 828 Q 297 827 305 802 Q 318 769 306 741 Q 267 647 207 560 Q 150 476 72 385 Q 60 375 58 367 Q 54 355 70 358 Q 82 359 109 384 Q 155 421 213 493 Q 226 509 241 527 L 272 567 Z" class="stroke"/>
        <path d="M 241 527 Q 262 506 258 375 Q 258 374 258 370 Q 254 253 221 135 Q 215 114 224 80 Q 236 44 248 32 Q 267 16 279 44 Q 294 86 294 134 Q 303 420 314 485 Q 321 515 295 543 Q 289 549 272 567 C 251 589 227 553 241 527 Z" class="stroke"/>
        <path d="M 521 560 Q 561 621 602 708 Q 620 751 638 773 Q 645 786 639 799 Q 633 811 602 830 Q 572 846 554 843 Q 535 839 546 817 Q 561 795 552 757 Q 513 619 407 448 Q 398 436 397 430 Q 394 418 409 423 Q 439 432 503 532 L 521 560 Z" class="stroke"/>
        <path d="M 503 532 Q 527 510 555 520 Q 795 608 782 549 Q 783 543 743 468 Q 736 458 741 453 Q 745 447 756 459 Q 852 532 894 549 Q 904 552 905 561 Q 906 574 876 592 Q 852 605 828 621 Q 800 637 783 630 Q 686 590 521 560 C 492 555 479 550 503 532 Z" class="stroke"/>
        <path d="M 568 72 Q 531 81 494 91 Q 482 94 483 86 Q 484 79 494 71 Q 569 7 596 -33 Q 611 -49 626 -36 Q 659 -3 661 82 Q 655 149 655 345 Q 656 382 667 407 Q 676 426 659 439 Q 634 461 604 470 Q 585 477 577 469 Q 571 462 582 447 Q 619 384 603 127 Q 597 82 589 74 Q 582 67 568 72 Z" class="stroke"/>
        <path d="M 444 320 Q 419 262 385 208 Q 364 180 381 144 Q 388 128 409 139 Q 460 181 468 264 Q 472 295 467 319 Q 463 328 456 328 Q 449 327 444 320 Z" class="stroke"/>
        <path d="M 738 307 Q 789 249 847 168 Q 860 146 876 139 Q 885 138 893 146 Q 908 159 900 204 Q 891 264 743 338 Q 734 345 731 332 Q 728 319 738 307 Z" class="stroke"/>
        
        <path d="M 344.79285582834177 743.2422831904162 L 332.0140498209106 718.7069756561484 L 319.2352438134795 694.1716681218805 L 306.4564378060483 669.6363605876128 L 292.26830708623027 645.9087853595519 L 277.55764356019137 622.4806915958603 L 262.8469800341524 599.0525978321687 L 248.03460603264236 575.6938787500455 L 231.5915618419434 553.4474071979234 L 215.14851765124442 531.2009356458012 L 198.70547346054545 508.9544640936791 L 182.26242926984648 486.707992541557 L 164.0322959665197 465.91133296233465 L 145.65354723388606 445.2352406381218 L 127.27479850125249 424.5591483139091" class="arrow-line"/>
        <path d="M 116.24754926167229 412.15349291938134 L 134.7666912690563 422.45113242124506 L 124.30296080748508 431.752226164864 Z" class="arrow-head"/>
        <text x="345.09100875886156" y="778.4129785009761" class="stroke-number" style="transform-origin:345.09100875886156px 778.4129785009761px; transform:scale(1,-1);">1</text>
        <path d="M 284.7571057726119 481.8837117210422 L 284.2751712674235 455.8592484408698 L 283.3805591269434 429.8500642849809 L 281.9367341323402 403.8612143821228 L 280.49290913773694 377.87236447926466 L 279.0490841431337 351.8835145764066 L 277.6052591485305 325.89466467354845 L 276.16143415392725 299.90581477069037 L 274.717609159324 273.91696486783223 L 273.2737841647208 247.9281149649741 L 270.0413369793276 222.11531985407706 L 266.3903604400864 196.3437207535509 L 262.73938390084516 170.57212165302477 L 259.08840736160397 144.80052255249865 L 256.1954128736009 118.99403609118205" class="arrow-line"/>
        <path d="M 256.9563302988807 103.39522887294561 L 264.97556301461935 123.0087932264951 L 250.99408678937158 123.72873944867544 Z" class="arrow-head"/>
        <text x="276.97130744527846" y="516.8964342401497" class="stroke-number" style="transform-origin:276.97130744527846px 516.8964342401497px; transform:scale(1,-1);">2</text>
        <path d="M 592.5784459542705 774.8547727552733 L 585.9714033673217 752.6310840537186 L 577.6432599221199 731.0263455943269 L 568.5831820301875 709.6848287822193 L 559.5231041382549 688.3433119701116 L 550.4630262463223 667.0017951580038 L 541.4029483543899 645.6602783458961 L 530.9974773743572 624.9607764449128 L 520.106375149082 604.4930153663784 L 509.2152729238069 584.025254287844 L 498.3241706985317 563.5574932093097 L 487.4330684732565 543.0897321307752 L 475.66627283616543 523.1503637966208 L 462.6358269009489 503.97348109950974 L 449.6053809657324 484.7965984023987" class="arrow-line"/>
        <path d="M 441.7871134046025 473.29046878413203 L 458.8173779699605 485.89880288638017 L 447.2376463975004 493.76708203176975 Z" class="arrow-head"/>
        <text x="582.4084198617647" y="803.3863678428571" class="stroke-number" style="transform-origin:582.4084198617647px 803.3863678428571px; transform:scale(1,-1);">3</text>
        <path d="M 580.8209209788993 550.8194178632548 L 603.4278946385323 557.0925571510063 L 626.0348682981654 563.3656964387579 L 648.6418419577985 569.6388357265096 L 671.2488156174315 575.9119750142611 L 693.8557892770647 582.1851143020127 L 716.8250385560729 586.6728311160095 L 740.0891662855008 589.7072825589784 L 763.3532940149288 592.7417340019473 L 786.6174217443569 595.7761854449161 L 807.4368446044062 588.9269332204192 L 821.9398770238981 570.9516218195887 L 819.2757691868933 551.2804773870105 L 806.3647616848119 531.6913625562664 L 792.5376899458911 512.8023789770688" class="arrow-line"/>
        <path d="M 783.2301519567129 502.241903181655 L 801.089793574778 513.6451133118893 L 790.080564810778 522.2936323771349 Z" class="arrow-head"/>
        <text x="549.171157855413" y="542.0370228604025" class="stroke-number" style="transform-origin:549.171157855413px 542.0370228604025px; transform:scale(1,-1);">4</text>
        <path d="M 631.7277014168784 393.5381560643557 L 631.2960046115423 364.26911266257196 L 630.8643078062063 335.0000692607883 L 630.4326110008702 305.7310258590046 L 630.0009141955343 276.4619824572209 L 629.5692173901982 247.19293905543722 L 629.1375205848622 217.92389565365357 L 628.7058237795261 188.65485225186987 L 628.27412697419 159.38580885008616 L 627.842430168854 130.1167654483025 L 627.4107333635179 100.84772204651875 L 626.5379069290142 71.65572924804121 L 617.0220982062028 43.973376599862874 L 594.7614479423887 33.41424749955199 L 567.3042602041622 43.56146905498351" class="arrow-line"/>
        <path d="M 551.3271990925075 50.72891815418698 L 567.3133117025976 36.820496115094386 L 572.4975414022794 49.8252553370461 Z" class="arrow-head"/>
        <text x="619.6774407231101" y="430.8462671293611" class="stroke-number" style="transform-origin:619.6774407231101px 430.8462671293611px; transform:scale(1,-1);">5</text>
        <path d="M 444.49575596763907 273.39945475764745 L 442.39490716116694 264.87934570917696 L 440.29405835469476 256.3592366607064 L 438.19320954822257 247.83912761223593 L 435.4883371605855 239.52317546934665 L 431.9893974187141 231.47561406304243 L 428.4904576768427 223.42805265673817 L 424.9915179349713 215.38049125043392 L 421.49257819309986 207.33292984412967 L 417.99363845122843 199.2853684378254 L 414.494698709357 191.23780703152119 L 410.99575896748564 183.19024562521693 L 407.4968192256142 175.14268421891273" class="arrow-line"/>
        <path d="M 405.39745538049135 170.31414737513018 L 419.7914680025531 185.8644657202937 L 406.95248721500775 191.44663128009603 Z" class="arrow-head"/>
        <text x="448.69745358058344" y="290.4396728545885" class="stroke-number" style="transform-origin:448.69745358058344px 290.4396728545885px; transform:scale(1,-1);">6</text>
        <path d="M 784.4820743363816 288.97990664972457 L 792.978489203658 281.57588797966946 L 801.4749040709343 274.1718693096144 L 809.9713189382106 266.7678506395593 L 817.7317981130229 258.6168611923154 L 825.2614423699339 250.23157554257364 L 832.7910866268448 241.84628989283183 L 840.3207308837559 233.46100424309003 L 847.8503751406669 225.07571859334823 L 855.3800193975779 216.69043294360642 L 861.1680630770113 207.04202399984703 L 866.7998388642295 197.28027930200219 L 871.5468071297967 187.18784904676022" class="arrow-line"/>
        <path d="M 872.8374457038373 180.55027923740818 L 872.6326714740791 201.73890985655927 L 859.4639661314376 196.98652102580402 Z" class="arrow-head"/>
        <text x="767.489244601829" y="303.78794398983473" class="stroke-number" style="transform-origin:767.489244601829px 303.78794398983473px; transform:scale(1,-1);">7</text>
    </g>
</svg>