<?xml version="1.0" encoding="UTF-8"?>
<svg viewBox="0 0 1024 1024" xmlns="http://www.w3.org/2000/svg">
    <style type="text/css">
        
        .stroke-1 { fill: #BF0909; }
        .stroke-2 { fill: #BFBF09; }
        .stroke-3 { fill: #09BF09; }
        .stroke-4 { fill: #09BFBF; }
        .stroke-5 { fill: #0909BF; }
        .stroke-6 { fill: #BF09BF; }
        .stroke-7 { fill: #42005e; }
        .arrow {
            fill: #000000;
            stroke: #FFFFFF;
            stroke-width: 2px;
        }
        text {
            font-family: Helvetica, Arial, sans-serif;
            font-size: 50px;
            fill: #FFFFFF;
            paint-order: stroke;
            stroke: #000000;
            stroke-width: 4px;
            stroke-linecap: butt;
            stroke-linejoin: miter;
            font-weight: 800;
        }
    </style>
    
    <g transform="scale(1, -1) translate(0, -900)">
        
        <path d="M 350 571 Q 380 593 449 614 Q 465 615 468 623 Q 471 633 458 643 Q 439 656 396 668 Q 381 674 370 672 Q 363 668 363 657 Q 364 621 200 527 Q 196 518 201 516 Q 213 516 290 546 Q 303 550 316 556 L 350 571 Z" class="stroke-1"/>
        <path d="M 584 466 Q 666 485 734 497 Q 746 496 754 511 Q 755 524 729 533 Q 693 554 622 527 Q 598 520 575 511 L 537 499 Q 518 495 500 488 Q 442 472 386 457 L 337 446 Q 327 446 179 416 Q 148 409 173 392 Q 212 365 241 376 Q 287 389 339 404 L 387 416 Q 460 438 545 457 L 584 466 Z" class="stroke-2"/>
        <path d="M 386 457 Q 387 493 398 517 Q 405 535 390 548 Q 371 564 350 571 C 323 583 303 583 316 556 Q 315 556 316 555 Q 338 519 337 478 Q 337 462 337 446 L 339 404 Q 340 343 339 289 L 338 241 Q 337 180 334 133 Q 333 115 323 109 Q 317 105 250 119 Q 238 122 239 114 Q 240 108 249 100 Q 309 42 328 6 Q 341 -10 357 3 Q 390 36 390 126 Q 387 169 387 265 L 387 306 Q 387 355 387 416 L 386 457 Z" class="stroke-3"/>
        <path d="M 339 289 Q 254 261 161 229 Q 139 222 101 221 Q 86 220 85 207 Q 84 192 94 184 Q 119 166 157 147 Q 169 144 182 154 Q 239 199 338 241 L 387 265 Q 477 314 484 318 Q 499 327 498 337 Q 492 343 479 340 Q 434 324 387 306 L 339 289 Z" class="stroke-4"/>
        <path d="M 635 195 Q 690 75 797 -14 Q 876 -62 898 -47 Q 920 -37 914 3 Q 905 34 899 152 Q 900 174 894 178 Q 890 179 884 160 Q 857 75 838 60 Q 823 56 785 88 Q 710 155 670 226 L 644 279 Q 599 381 584 466 L 575 511 Q 547 659 576 752 Q 586 779 543 805 Q 509 827 489 825 Q 470 824 479 795 Q 503 752 507 707 Q 517 601 537 499 L 545 457 Q 573 334 612 245 L 635 195 Z" class="stroke-5"/>
        <path d="M 612 245 Q 558 197 452 138 Q 442 132 448 128 Q 455 124 468 126 Q 523 135 574 160 Q 608 175 635 195 L 670 226 Q 706 260 747 317 Q 762 336 778 354 Q 788 361 785 374 Q 781 386 753 410 Q 734 428 723 428 Q 708 427 707 411 Q 701 354 644 279 L 612 245 Z" class="stroke-6"/>
        <path d="M 687 669 Q 718 648 754 623 Q 770 613 786 615 Q 798 618 801 632 Q 802 648 789 678 Q 780 697 746 708 Q 665 726 651 715 Q 647 711 651 697 Q 655 687 687 669 Z" class="stroke-7"/>
        
        <path d="M 428.0549451010643 628.8148518120568 L 457.455544456383 618.0164835303193 L 458.544455543617 635.9835164696807 Z" class="arrow arrow-1"/>
        <path d="M 203.68383192402308 399.65602459648443 L 175.30319262105468 412.90514957720694 L 172.69680737894532 395.09485042279306 Z" class="arrow arrow-2"/>
        <path d="M 349.8328157299975 542.5835921350013 L 327.0249223594996 564.0498447189992 L 318.9750776405004 547.9501552810008 Z" class="arrow arrow-3"/>
        <path d="M 127.27194468682853 193.5003586852036 L 103.74989239443892 214.18158340604856 L 96.25010760556108 197.81841659395144 Z" class="arrow arrow-4"/>
        <path d="M 512.7471449737803 785.3307596940516 L 498.50077209178454 813.2241434921341 L 485.49922790821546 800.7758565078659 Z" class="arrow arrow-5"/>
        <path d="M 731.5642975980049 383.24842949241196 L 731.6254711522764 414.56928927940146 L 714.3745288477236 409.43071072059854 Z" class="arrow arrow-6"/>
        <path d="M 684.3411179897603 697.652398327205 L 660.7042805018385 718.2023353969281 L 653.2957194981615 701.7976646030719 Z" class="arrow arrow-7"/>
        
        <text x="433" y="642" style="transform-origin:433px 642px; transform:scale(1,-1);">1</text>
        <text x="149" y="419" style="transform-origin:149px 419px; transform:scale(1,-1);">2</text>
        <text x="298" y="571" style="transform-origin:298px 571px; transform:scale(1,-1);">3</text>
        <text x="75" y="221" style="transform-origin:75px 221px; transform:scale(1,-1);">4</text>
        <text x="467" y="822" style="transform-origin:467px 822px; transform:scale(1,-1);">5</text>
        <text x="698" y="427" style="transform-origin:698px 427px; transform:scale(1,-1);">6</text>
        <text x="632" y="725" style="transform-origin:632px 725px; transform:scale(1,-1);">7</text>
    </g>
</svg>